<svg width="56.693" height="56.693" xmlns="http://www.w3.org/2000/svg">

 <g>
  <title>background</title>
  <rect fill="none" id="canvas_background" height="402" width="582" y="-1" x="-1"/>
 </g>
 <g>
  <title>Layer 1</title>
  <path fill="#ffffff" id="svg_2" d="m38.031,27.257c-3.174,0 -3.615,3.168 -3.615,3.168l6.748,0c0,0 0.043,-3.168 -3.133,-3.168z"/>
  <path fill="#ffffff" id="svg_3" d="m22.721,30.425l-5.982,0l0,5.492l5.296,0c0.09,0 0.225,0.002 0.383,0c0.852,-0.02 2.467,-0.268 2.467,-2.67c0,-2.851 -2.164,-2.822 -2.164,-2.822z"/>
  <path fill="#ffffff" id="svg_4" d="m28.348,5.101c-13.6,0 -24.625,11.023 -24.625,24.623c0,13.6 11.025,24.625 24.625,24.625c13.598,0 24.623,-11.025 24.623,-24.625c0,-13.599 -11.026,-24.623 -24.623,-24.623zm5.183,15.13l8.477,0l0,2.53l-8.477,0l0,-2.53zm-4.285,13.272c0,6.271 -6.525,6.064 -6.525,6.064l-5.982,0l-0.175,0l-4.535,0l0,-20.546l4.535,0l0.175,0l5.982,0c3.248,0 5.812,1.794 5.812,5.47c0,3.676 -3.135,3.91 -3.135,3.91c4.133,0 3.848,5.102 3.848,5.102zm15.858,-0.336l-10.647,0c0,3.816 3.615,3.576 3.615,3.576c3.414,0 3.295,-2.211 3.295,-2.211l3.617,0c0,5.867 -7.033,5.465 -7.033,5.465c-8.436,0 -7.893,-7.855 -7.893,-7.855s-0.008,-7.893 7.893,-7.893c8.317,0 7.153,8.918 7.153,8.918z"/>
  <path fill="#ffffff" id="svg_5" d="m24.174,24.81c0,-2.137 -1.453,-2.137 -1.453,-2.137l-0.77,0l-5.212,0l0,4.584l5.611,0c0.968,0 1.824,-0.311 1.824,-2.447z"/>
 </g>
</svg>