<svg width="24" height="24" viewBox="0 0 24 24" fill="none" xmlns="http://www.w3.org/2000/svg">
<path d="M14.1225 11.9998L23.5602 2.56205C24.1466 1.97619 24.1466 1.02562 23.5602 0.439766C22.9739 -0.146589 22.0243 -0.146589 21.438 0.439766L12.0002 9.87747L2.56205 0.439766C1.97569 -0.146589 1.02612 -0.146589 0.439766 0.439766C-0.146589 1.02562 -0.146589 1.97619 0.439766 2.56205L9.87797 11.9998L0.439766 21.4375C-0.146589 22.0233 -0.146589 22.9739 0.439766 23.5597C0.732943 23.8524 1.11717 23.999 1.50091 23.999C1.88464 23.999 2.26887 23.8524 2.56205 23.5592L12.0002 14.1215L21.438 23.5592C21.7311 23.8524 22.1154 23.999 22.4991 23.999C22.8828 23.999 23.2671 23.8524 23.5602 23.5592C24.1466 22.9734 24.1466 22.0228 23.5602 21.437L14.1225 11.9998Z" fill="#0C4DA2"/>
</svg>
