<svg width="216" height="43" viewBox="0 0 216 43" fill="none" xmlns="http://www.w3.org/2000/svg">
<path d="M0.0845782 1.4H2.42458V12.02H9.01258V14H0.0845782V1.4ZM14.8761 14.126C13.9041 14.126 13.0281 13.916 12.2481 13.496C11.4681 13.076 10.8561 12.494 10.4121 11.75C9.98008 10.994 9.76408 10.142 9.76408 9.194C9.76408 8.246 9.98008 7.4 10.4121 6.656C10.8561 5.912 11.4681 5.33 12.2481 4.91C13.0281 4.49 13.9041 4.28 14.8761 4.28C15.8601 4.28 16.7421 4.49 17.5221 4.91C18.3021 5.33 18.9081 5.912 19.3401 6.656C19.7841 7.4 20.0061 8.246 20.0061 9.194C20.0061 10.142 19.7841 10.994 19.3401 11.75C18.9081 12.494 18.3021 13.076 17.5221 13.496C16.7421 13.916 15.8601 14.126 14.8761 14.126ZM14.8761 12.2C15.7041 12.2 16.3881 11.924 16.9281 11.372C17.4681 10.82 17.7381 10.094 17.7381 9.194C17.7381 8.294 17.4681 7.568 16.9281 7.016C16.3881 6.464 15.7041 6.188 14.8761 6.188C14.0481 6.188 13.3641 6.464 12.8241 7.016C12.2961 7.568 12.0321 8.294 12.0321 9.194C12.0321 10.094 12.2961 10.82 12.8241 11.372C13.3641 11.924 14.0481 12.2 14.8761 12.2ZM31.6976 4.388V12.542C31.6976 15.926 29.9696 17.618 26.5136 17.618C25.5896 17.618 24.7136 17.498 23.8856 17.258C23.0576 17.03 22.3736 16.694 21.8336 16.25L22.8416 14.558C23.2616 14.906 23.7896 15.182 24.4256 15.386C25.0736 15.602 25.7276 15.71 26.3876 15.71C27.4436 15.71 28.2176 15.47 28.7096 14.99C29.2016 14.51 29.4476 13.778 29.4476 12.794V12.29C29.0636 12.71 28.5956 13.028 28.0436 13.244C27.4916 13.46 26.8856 13.568 26.2256 13.568C25.3136 13.568 24.4856 13.376 23.7416 12.992C23.0096 12.596 22.4276 12.044 21.9956 11.336C21.5756 10.628 21.3656 9.818 21.3656 8.906C21.3656 7.994 21.5756 7.19 21.9956 6.494C22.4276 5.786 23.0096 5.24 23.7416 4.856C24.4856 4.472 25.3136 4.28 26.2256 4.28C26.9216 4.28 27.5516 4.394 28.1156 4.622C28.6916 4.85 29.1716 5.198 29.5556 5.666V4.388H31.6976ZM26.5676 11.66C27.4196 11.66 28.1156 11.408 28.6556 10.904C29.2076 10.388 29.4836 9.722 29.4836 8.906C29.4836 8.102 29.2076 7.448 28.6556 6.944C28.1156 6.44 27.4196 6.188 26.5676 6.188C25.7036 6.188 24.9956 6.44 24.4436 6.944C23.9036 7.448 23.6336 8.102 23.6336 8.906C23.6336 9.722 23.9036 10.388 24.4436 10.904C24.9956 11.408 25.7036 11.66 26.5676 11.66ZM34.6557 4.388H36.9057V14H34.6557V4.388ZM35.7897 2.804C35.3817 2.804 35.0397 2.678 34.7637 2.426C34.4877 2.162 34.3497 1.838 34.3497 1.454C34.3497 1.07 34.4877 0.751999 34.7637 0.499999C35.0397 0.235999 35.3817 0.104 35.7897 0.104C36.1977 0.104 36.5397 0.23 36.8157 0.481999C37.0917 0.722 37.2297 1.028 37.2297 1.4C37.2297 1.796 37.0917 2.132 36.8157 2.408C36.5517 2.672 36.2097 2.804 35.7897 2.804ZM42.8288 14.126C42.0488 14.126 41.2868 14.024 40.5428 13.82C39.7988 13.616 39.2048 13.358 38.7608 13.046L39.6248 11.336C40.0568 11.624 40.5728 11.858 41.1728 12.038C41.7848 12.206 42.3848 12.29 42.9728 12.29C44.3168 12.29 44.9888 11.936 44.9888 11.228C44.9888 10.892 44.8148 10.658 44.4668 10.526C44.1308 10.394 43.5848 10.268 42.8288 10.148C42.0368 10.028 41.3888 9.89 40.8848 9.734C40.3928 9.578 39.9608 9.308 39.5888 8.924C39.2288 8.528 39.0488 7.982 39.0488 7.286C39.0488 6.374 39.4268 5.648 40.1828 5.108C40.9508 4.556 41.9828 4.28 43.2788 4.28C43.9388 4.28 44.5988 4.358 45.2588 4.514C45.9188 4.658 46.4588 4.856 46.8788 5.108L46.0148 6.818C45.1988 6.338 44.2808 6.098 43.2608 6.098C42.6008 6.098 42.0968 6.2 41.7488 6.404C41.4128 6.596 41.2448 6.854 41.2448 7.178C41.2448 7.538 41.4248 7.796 41.7848 7.952C42.1568 8.096 42.7268 8.234 43.4948 8.366C44.2628 8.486 44.8928 8.624 45.3848 8.78C45.8768 8.936 46.2968 9.2 46.6448 9.572C47.0048 9.944 47.1848 10.472 47.1848 11.156C47.1848 12.056 46.7948 12.776 46.0148 13.316C45.2348 13.856 44.1728 14.126 42.8288 14.126ZM54.9005 13.478C54.6365 13.694 54.3125 13.856 53.9285 13.964C53.5565 14.072 53.1605 14.126 52.7405 14.126C51.6845 14.126 50.8685 13.85 50.2925 13.298C49.7165 12.746 49.4285 11.942 49.4285 10.886V6.26H47.8445V4.46H49.4285V2.264H51.6785V4.46H54.2525V6.26H51.6785V10.832C51.6785 11.3 51.7925 11.66 52.0205 11.912C52.2485 12.152 52.5785 12.272 53.0105 12.272C53.5145 12.272 53.9345 12.14 54.2705 11.876L54.9005 13.478ZM62.2054 4.28C63.4174 4.28 64.3894 4.634 65.1214 5.342C65.8534 6.05 66.2194 7.1 66.2194 8.492V14H63.9694V8.78C63.9694 7.94 63.7714 7.31 63.3754 6.89C62.9794 6.458 62.4154 6.242 61.6834 6.242C60.8554 6.242 60.2014 6.494 59.7214 6.998C59.2414 7.49 59.0014 8.204 59.0014 9.14V14H56.7514V0.643999H59.0014V5.504C59.3734 5.108 59.8294 4.808 60.3694 4.604C60.9214 4.388 61.5334 4.28 62.2054 4.28ZM69.7937 14.126C69.3857 14.126 69.0377 13.988 68.7497 13.712C68.4617 13.424 68.3177 13.064 68.3177 12.632C68.3177 12.188 68.4557 11.828 68.7317 11.552C69.0197 11.276 69.3737 11.138 69.7937 11.138C70.2137 11.138 70.5617 11.276 70.8377 11.552C71.1257 11.828 71.2697 12.188 71.2697 12.632C71.2697 13.064 71.1257 13.424 70.8377 13.712C70.5497 13.988 70.2017 14.126 69.7937 14.126ZM106.896 12.848V14H97.9856V1.4H106.626V2.552H99.3176V7.034H105.834V8.168H99.3176V12.848H106.896ZM115.523 14L112.517 10.04L109.493 14H108.053L111.797 9.14L108.233 4.532H109.673L112.517 8.24L115.361 4.532H116.765L113.201 9.14L116.981 14H115.523ZM123.986 4.46C124.874 4.46 125.678 4.664 126.398 5.072C127.118 5.468 127.682 6.032 128.09 6.764C128.498 7.496 128.702 8.33 128.702 9.266C128.702 10.214 128.498 11.054 128.09 11.786C127.682 12.518 127.118 13.088 126.398 13.496C125.69 13.892 124.886 14.09 123.986 14.09C123.218 14.09 122.522 13.934 121.898 13.622C121.286 13.298 120.782 12.83 120.386 12.218V17.492H119.108V4.532H120.332V6.404C120.716 5.78 121.22 5.3 121.844 4.964C122.48 4.628 123.194 4.46 123.986 4.46ZM123.896 12.956C124.556 12.956 125.156 12.806 125.696 12.506C126.236 12.194 126.656 11.756 126.956 11.192C127.268 10.628 127.424 9.986 127.424 9.266C127.424 8.546 127.268 7.91 126.956 7.358C126.656 6.794 126.236 6.356 125.696 6.044C125.156 5.732 124.556 5.576 123.896 5.576C123.224 5.576 122.618 5.732 122.078 6.044C121.55 6.356 121.13 6.794 120.818 7.358C120.518 7.91 120.368 8.546 120.368 9.266C120.368 9.986 120.518 10.628 120.818 11.192C121.13 11.756 121.55 12.194 122.078 12.506C122.618 12.806 123.224 12.956 123.896 12.956ZM139.551 9.662H131.631C131.703 10.646 132.081 11.444 132.765 12.056C133.449 12.656 134.313 12.956 135.357 12.956C135.945 12.956 136.485 12.854 136.977 12.65C137.469 12.434 137.895 12.122 138.255 11.714L138.975 12.542C138.555 13.046 138.027 13.43 137.391 13.694C136.767 13.958 136.077 14.09 135.321 14.09C134.349 14.09 133.485 13.886 132.729 13.478C131.985 13.058 131.403 12.482 130.983 11.75C130.563 11.018 130.353 10.19 130.353 9.266C130.353 8.342 130.551 7.514 130.947 6.782C131.355 6.05 131.907 5.48 132.603 5.072C133.311 4.664 134.103 4.46 134.979 4.46C135.855 4.46 136.641 4.664 137.337 5.072C138.033 5.48 138.579 6.05 138.975 6.782C139.371 7.502 139.569 8.33 139.569 9.266L139.551 9.662ZM134.979 5.558C134.067 5.558 133.299 5.852 132.675 6.44C132.063 7.016 131.715 7.772 131.631 8.708H138.345C138.261 7.772 137.907 7.016 137.283 6.44C136.671 5.852 135.903 5.558 134.979 5.558ZM143.395 6.386C143.695 5.75 144.139 5.27 144.727 4.946C145.327 4.622 146.065 4.46 146.941 4.46V5.702L146.635 5.684C145.639 5.684 144.859 5.99 144.295 6.602C143.731 7.214 143.449 8.072 143.449 9.176V14H142.171V4.532H143.395V6.386ZM154.645 13.424C154.405 13.64 154.105 13.808 153.745 13.928C153.397 14.036 153.031 14.09 152.647 14.09C151.759 14.09 151.075 13.85 150.595 13.37C150.115 12.89 149.875 12.212 149.875 11.336V5.612H148.183V4.532H149.875V2.462H151.153V4.532H154.033V5.612H151.153V11.264C151.153 11.828 151.291 12.26 151.567 12.56C151.855 12.848 152.263 12.992 152.791 12.992C153.055 12.992 153.307 12.95 153.547 12.866C153.799 12.782 154.015 12.662 154.195 12.506L154.645 13.424ZM161.952 1.4H163.284V12.848H170.34V14H161.952V1.4ZM172.282 4.532H173.56V14H172.282V4.532ZM172.93 2.462C172.666 2.462 172.444 2.372 172.264 2.192C172.084 2.012 171.994 1.796 171.994 1.544C171.994 1.304 172.084 1.094 172.264 0.913999C172.444 0.733999 172.666 0.643999 172.93 0.643999C173.194 0.643999 173.416 0.733999 173.596 0.913999C173.776 1.082 173.866 1.286 173.866 1.526C173.866 1.79 173.776 2.012 173.596 2.192C173.416 2.372 173.194 2.462 172.93 2.462ZM183.794 12.938V14H176.09V13.154L182.048 5.612H176.198V4.532H183.686V5.378L177.728 12.938H183.794ZM194.395 9.662H186.475C186.547 10.646 186.925 11.444 187.609 12.056C188.293 12.656 189.157 12.956 190.201 12.956C190.789 12.956 191.329 12.854 191.821 12.65C192.313 12.434 192.739 12.122 193.099 11.714L193.819 12.542C193.399 13.046 192.871 13.43 192.235 13.694C191.611 13.958 190.921 14.09 190.165 14.09C189.193 14.09 188.329 13.886 187.573 13.478C186.829 13.058 186.247 12.482 185.827 11.75C185.407 11.018 185.197 10.19 185.197 9.266C185.197 8.342 185.395 7.514 185.791 6.782C186.199 6.05 186.751 5.48 187.447 5.072C188.155 4.664 188.947 4.46 189.823 4.46C190.699 4.46 191.485 4.664 192.181 5.072C192.877 5.48 193.423 6.05 193.819 6.782C194.215 7.502 194.413 8.33 194.413 9.266L194.395 9.662ZM189.823 5.558C188.911 5.558 188.143 5.852 187.519 6.44C186.907 7.016 186.559 7.772 186.475 8.708H193.189C193.105 7.772 192.751 7.016 192.127 6.44C191.515 5.852 190.747 5.558 189.823 5.558ZM201.838 4.46C203.026 4.46 203.968 4.808 204.664 5.504C205.372 6.188 205.726 7.19 205.726 8.51V14H204.448V8.636C204.448 7.652 204.202 6.902 203.71 6.386C203.218 5.87 202.516 5.612 201.604 5.612C200.584 5.612 199.774 5.918 199.174 6.53C198.586 7.13 198.292 7.964 198.292 9.032V14H197.014V4.532H198.238V6.278C198.586 5.702 199.066 5.258 199.678 4.946C200.302 4.622 201.022 4.46 201.838 4.46ZM215.874 12.938V14H208.17V13.154L214.128 5.612H208.278V4.532H215.766V5.378L209.808 12.938H215.874ZM19.6806 29.634C19.1286 29.634 18.7086 29.784 18.4206 30.084C18.1446 30.384 18.0066 30.828 18.0066 31.416V32.532H20.9226V33.612H18.0426V42H16.7646V33.612H15.0726V32.532H16.7646V31.362C16.7646 30.498 17.0106 29.814 17.5026 29.31C18.0066 28.806 18.7146 28.554 19.6266 28.554C19.9866 28.554 20.3346 28.608 20.6706 28.716C21.0066 28.812 21.2886 28.956 21.5166 29.148L21.0846 30.102C20.7126 29.79 20.2446 29.634 19.6806 29.634ZM31.1802 32.532V42H29.9562V40.272C29.6202 40.848 29.1582 41.298 28.5702 41.622C27.9822 41.934 27.3102 42.09 26.5542 42.09C25.3182 42.09 24.3402 41.748 23.6202 41.064C22.9122 40.368 22.5582 39.354 22.5582 38.022V32.532H23.8362V37.896C23.8362 38.892 24.0822 39.648 24.5742 40.164C25.0662 40.68 25.7682 40.938 26.6802 40.938C27.6762 40.938 28.4622 40.638 29.0382 40.038C29.6142 39.426 29.9022 38.58 29.9022 37.5V32.532H31.1802ZM25.2762 30.642C25.0602 30.642 24.8742 30.57 24.7182 30.426C24.5742 30.282 24.5022 30.096 24.5022 29.868C24.5022 29.652 24.5742 29.472 24.7182 29.328C24.8742 29.172 25.0602 29.094 25.2762 29.094C25.4802 29.094 25.6602 29.172 25.8162 29.328C25.9722 29.472 26.0502 29.652 26.0502 29.868C26.0502 30.084 25.9722 30.27 25.8162 30.426C25.6722 30.57 25.4922 30.642 25.2762 30.642ZM28.4802 30.642C28.2642 30.642 28.0782 30.57 27.9222 30.426C27.7782 30.27 27.7062 30.084 27.7062 29.868C27.7062 29.652 27.7842 29.472 27.9402 29.328C28.0962 29.172 28.2762 29.094 28.4802 29.094C28.6962 29.094 28.8762 29.172 29.0202 29.328C29.1762 29.472 29.2542 29.652 29.2542 29.868C29.2542 30.096 29.1762 30.282 29.0202 30.426C28.8762 30.57 28.6962 30.642 28.4802 30.642ZM35.9835 34.386C36.2835 33.75 36.7275 33.27 37.3155 32.946C37.9155 32.622 38.6535 32.46 39.5295 32.46V33.702L39.2235 33.684C38.2275 33.684 37.4475 33.99 36.8835 34.602C36.3195 35.214 36.0375 36.072 36.0375 37.176V42H34.7595V32.532H35.9835V34.386ZM54.9391 37.662H47.0191C47.0911 38.646 47.4691 39.444 48.1531 40.056C48.8371 40.656 49.7011 40.956 50.7451 40.956C51.3331 40.956 51.8731 40.854 52.3651 40.65C52.8571 40.434 53.2831 40.122 53.6431 39.714L54.3631 40.542C53.9431 41.046 53.4151 41.43 52.7791 41.694C52.1551 41.958 51.4651 42.09 50.7091 42.09C49.7371 42.09 48.8731 41.886 48.1171 41.478C47.3731 41.058 46.7911 40.482 46.3711 39.75C45.9511 39.018 45.7411 38.19 45.7411 37.266C45.7411 36.342 45.9391 35.514 46.3351 34.782C46.7431 34.05 47.2951 33.48 47.9911 33.072C48.6991 32.664 49.4911 32.46 50.3671 32.46C51.2431 32.46 52.0291 32.664 52.7251 33.072C53.4211 33.48 53.9671 34.05 54.3631 34.782C54.7591 35.502 54.9571 36.33 54.9571 37.266L54.9391 37.662ZM50.3671 33.558C49.4551 33.558 48.6871 33.852 48.0631 34.44C47.4511 35.016 47.1031 35.772 47.0191 36.708H53.7331C53.6491 35.772 53.2951 35.016 52.6711 34.44C52.0591 33.852 51.2911 33.558 50.3671 33.558ZM57.5584 32.532H58.8364V42H57.5584V32.532ZM58.2064 30.462C57.9424 30.462 57.7204 30.372 57.5404 30.192C57.3604 30.012 57.2704 29.796 57.2704 29.544C57.2704 29.304 57.3604 29.094 57.5404 28.914C57.7204 28.734 57.9424 28.644 58.2064 28.644C58.4704 28.644 58.6924 28.734 58.8724 28.914C59.0524 29.082 59.1424 29.286 59.1424 29.526C59.1424 29.79 59.0524 30.012 58.8724 30.192C58.6924 30.372 58.4704 30.462 58.2064 30.462ZM67.2164 32.46C68.4044 32.46 69.3464 32.808 70.0424 33.504C70.7504 34.188 71.1044 35.19 71.1044 36.51V42H69.8264V36.636C69.8264 35.652 69.5804 34.902 69.0884 34.386C68.5964 33.87 67.8944 33.612 66.9824 33.612C65.9624 33.612 65.1524 33.918 64.5524 34.53C63.9644 35.13 63.6704 35.964 63.6704 37.032V42H62.3924V32.532H63.6164V34.278C63.9644 33.702 64.4444 33.258 65.0564 32.946C65.6804 32.622 66.4004 32.46 67.2164 32.46ZM82.8531 37.662H74.9331C75.0051 38.646 75.3831 39.444 76.0671 40.056C76.7511 40.656 77.6151 40.956 78.6591 40.956C79.2471 40.956 79.7871 40.854 80.2791 40.65C80.7711 40.434 81.1971 40.122 81.5571 39.714L82.2771 40.542C81.8571 41.046 81.3291 41.43 80.6931 41.694C80.0691 41.958 79.3791 42.09 78.6231 42.09C77.6511 42.09 76.7871 41.886 76.0311 41.478C75.2871 41.058 74.7051 40.482 74.2851 39.75C73.8651 39.018 73.6551 38.19 73.6551 37.266C73.6551 36.342 73.8531 35.514 74.2491 34.782C74.6571 34.05 75.2091 33.48 75.9051 33.072C76.6131 32.664 77.4051 32.46 78.2811 32.46C79.1571 32.46 79.9431 32.664 80.6391 33.072C81.3351 33.48 81.8811 34.05 82.2771 34.782C82.6731 35.502 82.8711 36.33 82.8711 37.266L82.8531 37.662ZM78.2811 33.558C77.3691 33.558 76.6011 33.852 75.9771 34.44C75.3651 35.016 75.0171 35.772 74.9331 36.708H81.6471C81.5631 35.772 81.2091 35.016 80.5851 34.44C79.9731 33.852 79.2051 33.558 78.2811 33.558ZM93.9274 42.108C92.9914 42.108 92.0914 41.958 91.2274 41.658C90.3754 41.358 89.7154 40.962 89.2474 40.47L89.7694 39.444C90.2254 39.9 90.8314 40.272 91.5874 40.56C92.3434 40.836 93.1234 40.974 93.9274 40.974C95.0554 40.974 95.9014 40.77 96.4654 40.362C97.0294 39.942 97.3114 39.402 97.3114 38.742C97.3114 38.238 97.1554 37.836 96.8434 37.536C96.5434 37.236 96.1714 37.008 95.7274 36.852C95.2834 36.684 94.6654 36.504 93.8734 36.312C92.9254 36.072 92.1694 35.844 91.6054 35.628C91.0414 35.4 90.5554 35.058 90.1474 34.602C89.7514 34.146 89.5534 33.528 89.5534 32.748C89.5534 32.112 89.7214 31.536 90.0574 31.02C90.3934 30.492 90.9094 30.072 91.6054 29.76C92.3014 29.448 93.1654 29.292 94.1974 29.292C94.9174 29.292 95.6194 29.394 96.3034 29.598C96.9994 29.79 97.5994 30.06 98.1034 30.408L97.6534 31.47C97.1254 31.122 96.5614 30.864 95.9614 30.696C95.3614 30.516 94.7734 30.426 94.1974 30.426C93.0934 30.426 92.2594 30.642 91.6954 31.074C91.1434 31.494 90.8674 32.04 90.8674 32.712C90.8674 33.216 91.0174 33.624 91.3174 33.936C91.6294 34.236 92.0134 34.47 92.4694 34.638C92.9374 34.794 93.5614 34.968 94.3414 35.16C95.2654 35.388 96.0094 35.616 96.5734 35.844C97.1494 36.06 97.6354 36.396 98.0314 36.852C98.4274 37.296 98.6254 37.902 98.6254 38.67C98.6254 39.306 98.4514 39.888 98.1034 40.416C97.7674 40.932 97.2454 41.346 96.5374 41.658C95.8294 41.958 94.9594 42.108 93.9274 42.108ZM105.182 42.09C104.246 42.09 103.406 41.886 102.662 41.478C101.93 41.07 101.354 40.5 100.934 39.768C100.514 39.024 100.304 38.19 100.304 37.266C100.304 36.342 100.514 35.514 100.934 34.782C101.354 34.05 101.93 33.48 102.662 33.072C103.406 32.664 104.246 32.46 105.182 32.46C105.998 32.46 106.724 32.622 107.36 32.946C108.008 33.258 108.518 33.72 108.89 34.332L107.936 34.98C107.624 34.512 107.228 34.164 106.748 33.936C106.268 33.696 105.746 33.576 105.182 33.576C104.498 33.576 103.88 33.732 103.328 34.044C102.788 34.344 102.362 34.776 102.05 35.34C101.75 35.904 101.6 36.546 101.6 37.266C101.6 37.998 101.75 38.646 102.05 39.21C102.362 39.762 102.788 40.194 103.328 40.506C103.88 40.806 104.498 40.956 105.182 40.956C105.746 40.956 106.268 40.842 106.748 40.614C107.228 40.386 107.624 40.038 107.936 39.57L108.89 40.218C108.518 40.83 108.008 41.298 107.36 41.622C106.712 41.934 105.986 42.09 105.182 42.09ZM116.084 32.46C117.272 32.46 118.214 32.808 118.91 33.504C119.618 34.188 119.972 35.19 119.972 36.51V42H118.694V36.636C118.694 35.652 118.448 34.902 117.956 34.386C117.464 33.87 116.762 33.612 115.85 33.612C114.83 33.612 114.02 33.918 113.42 34.53C112.832 35.13 112.538 35.964 112.538 37.032V42H111.26V28.644H112.538V34.188C112.886 33.636 113.366 33.21 113.978 32.91C114.59 32.61 115.292 32.46 116.084 32.46ZM128.265 32.46C129.453 32.46 130.395 32.808 131.091 33.504C131.799 34.188 132.153 35.19 132.153 36.51V42H130.875V36.636C130.875 35.652 130.629 34.902 130.137 34.386C129.645 33.87 128.943 33.612 128.031 33.612C127.011 33.612 126.201 33.918 125.601 34.53C125.013 35.13 124.719 35.964 124.719 37.032V42H123.441V32.532H124.665V34.278C125.013 33.702 125.493 33.258 126.105 32.946C126.729 32.622 127.449 32.46 128.265 32.46ZM135.623 32.532H136.901V42H135.623V32.532ZM136.271 30.462C136.007 30.462 135.785 30.372 135.605 30.192C135.425 30.012 135.335 29.796 135.335 29.544C135.335 29.304 135.425 29.094 135.605 28.914C135.785 28.734 136.007 28.644 136.271 28.644C136.535 28.644 136.757 28.734 136.937 28.914C137.117 29.082 137.207 29.286 137.207 29.526C137.207 29.79 137.117 30.012 136.937 30.192C136.757 30.372 136.535 30.462 136.271 30.462ZM145.443 41.424C145.203 41.64 144.903 41.808 144.543 41.928C144.195 42.036 143.829 42.09 143.445 42.09C142.557 42.09 141.873 41.85 141.393 41.37C140.913 40.89 140.673 40.212 140.673 39.336V33.612H138.981V32.532H140.673V30.462H141.951V32.532H144.831V33.612H141.951V39.264C141.951 39.828 142.089 40.26 142.365 40.56C142.653 40.848 143.061 40.992 143.589 40.992C143.853 40.992 144.105 40.95 144.345 40.866C144.597 40.782 144.813 40.662 144.993 40.506L145.443 41.424ZM152.509 41.424C152.269 41.64 151.969 41.808 151.609 41.928C151.261 42.036 150.895 42.09 150.511 42.09C149.623 42.09 148.939 41.85 148.459 41.37C147.979 40.89 147.739 40.212 147.739 39.336V33.612H146.047V32.532H147.739V30.462H149.017V32.532H151.897V33.612H149.017V39.264C149.017 39.828 149.155 40.26 149.431 40.56C149.719 40.848 150.127 40.992 150.655 40.992C150.919 40.992 151.171 40.95 151.411 40.866C151.663 40.782 151.879 40.662 152.059 40.506L152.509 41.424ZM157.374 42.09C156.606 42.09 155.868 41.982 155.16 41.766C154.464 41.538 153.918 41.256 153.522 40.92L154.098 39.912C154.494 40.224 154.992 40.482 155.592 40.686C156.192 40.878 156.816 40.974 157.464 40.974C158.328 40.974 158.964 40.842 159.372 40.578C159.792 40.302 160.002 39.918 160.002 39.426C160.002 39.078 159.888 38.808 159.66 38.616C159.432 38.412 159.144 38.262 158.796 38.166C158.448 38.058 157.986 37.956 157.41 37.86C156.642 37.716 156.024 37.572 155.556 37.428C155.088 37.272 154.686 37.014 154.35 36.654C154.026 36.294 153.864 35.796 153.864 35.16C153.864 34.368 154.194 33.72 154.854 33.216C155.514 32.712 156.432 32.46 157.608 32.46C158.22 32.46 158.832 32.544 159.444 32.712C160.056 32.868 160.56 33.078 160.956 33.342L160.398 34.368C159.618 33.828 158.688 33.558 157.608 33.558C156.792 33.558 156.174 33.702 155.754 33.99C155.346 34.278 155.142 34.656 155.142 35.124C155.142 35.484 155.256 35.772 155.484 35.988C155.724 36.204 156.018 36.366 156.366 36.474C156.714 36.57 157.194 36.672 157.806 36.78C158.562 36.924 159.168 37.068 159.624 37.212C160.08 37.356 160.47 37.602 160.794 37.95C161.118 38.298 161.28 38.778 161.28 39.39C161.28 40.218 160.932 40.878 160.236 41.37C159.552 41.85 158.598 42.09 157.374 42.09ZM168.628 41.424C168.388 41.64 168.088 41.808 167.728 41.928C167.38 42.036 167.014 42.09 166.63 42.09C165.742 42.09 165.058 41.85 164.578 41.37C164.098 40.89 163.858 40.212 163.858 39.336V33.612H162.166V32.532H163.858V30.462H165.136V32.532H168.016V33.612H165.136V39.264C165.136 39.828 165.274 40.26 165.55 40.56C165.838 40.848 166.246 40.992 166.774 40.992C167.038 40.992 167.29 40.95 167.53 40.866C167.782 40.782 167.998 40.662 168.178 40.506L168.628 41.424ZM178.865 37.662H170.945C171.017 38.646 171.395 39.444 172.079 40.056C172.763 40.656 173.627 40.956 174.671 40.956C175.259 40.956 175.799 40.854 176.291 40.65C176.783 40.434 177.209 40.122 177.569 39.714L178.289 40.542C177.869 41.046 177.341 41.43 176.705 41.694C176.081 41.958 175.391 42.09 174.635 42.09C173.663 42.09 172.799 41.886 172.043 41.478C171.299 41.058 170.717 40.482 170.297 39.75C169.877 39.018 169.667 38.19 169.667 37.266C169.667 36.342 169.865 35.514 170.261 34.782C170.669 34.05 171.221 33.48 171.917 33.072C172.625 32.664 173.417 32.46 174.293 32.46C175.169 32.46 175.955 32.664 176.651 33.072C177.347 33.48 177.893 34.05 178.289 34.782C178.685 35.502 178.883 36.33 178.883 37.266L178.865 37.662ZM174.293 33.558C173.381 33.558 172.613 33.852 171.989 34.44C171.377 35.016 171.029 35.772 170.945 36.708H177.659C177.575 35.772 177.221 35.016 176.597 34.44C175.985 33.852 175.217 33.558 174.293 33.558ZM181.484 28.644H182.762V42H181.484V28.644ZM186.318 28.644H187.596V42H186.318V28.644ZM199.396 37.662H191.476C191.548 38.646 191.926 39.444 192.61 40.056C193.294 40.656 194.158 40.956 195.202 40.956C195.79 40.956 196.33 40.854 196.822 40.65C197.314 40.434 197.74 40.122 198.1 39.714L198.82 40.542C198.4 41.046 197.872 41.43 197.236 41.694C196.612 41.958 195.922 42.09 195.166 42.09C194.194 42.09 193.33 41.886 192.574 41.478C191.83 41.058 191.248 40.482 190.828 39.75C190.408 39.018 190.198 38.19 190.198 37.266C190.198 36.342 190.396 35.514 190.792 34.782C191.2 34.05 191.752 33.48 192.448 33.072C193.156 32.664 193.948 32.46 194.824 32.46C195.7 32.46 196.486 32.664 197.182 33.072C197.878 33.48 198.424 34.05 198.82 34.782C199.216 35.502 199.414 36.33 199.414 37.266L199.396 37.662ZM194.824 33.558C193.912 33.558 193.144 33.852 192.52 34.44C191.908 35.016 191.56 35.772 191.476 36.708H198.19C198.106 35.772 197.752 35.016 197.128 34.44C196.516 33.852 195.748 33.558 194.824 33.558Z" fill="#0A0A0A"/>
<path d="M81.8562 11.084H75.5562L74.3142 14H71.9022L77.5722 1.4H79.8762L85.5642 14H83.1162L81.8562 11.084ZM81.0822 9.248L78.7062 3.74L76.3482 9.248H81.0822ZM87.1666 1.4H89.5066V14H87.1666V1.4Z" fill="#0C4DA2"/>
</svg>
