<svg width="74" height="79" viewBox="0 0 74 79" fill="none" xmlns="http://www.w3.org/2000/svg">
<path d="M46.0817 25.9441C45.3672 25.174 44.2209 25.174 43.5064 25.9441C42.7919 26.7142 42.7919 27.9496 43.5064 28.7197L51.8277 37.6883H2.73358C1.72133 37.6883 0.91748 38.5708 0.91748 39.6457C0.91748 40.7367 1.73621 41.6191 2.73358 41.6191H51.8128L43.4915 50.5878C42.777 51.3579 42.777 52.5933 43.4915 53.3634C43.8488 53.7484 44.3102 53.941 44.7866 53.941C45.263 53.941 45.7244 53.7484 46.0817 53.3634L57.5142 41.0415C57.8565 40.6725 58.05 40.1752 58.05 39.6457C58.05 39.1323 57.8565 38.6189 57.5142 38.2499L46.0817 25.9441Z" fill="#0C4DA2"/>
<path d="M73.7252 76.8037V2.4877C73.7252 1.3967 72.9065 0.514282 71.8942 0.514282C70.882 0.514282 70.0632 1.3967 70.0632 2.4877V76.8037C70.0632 77.8947 70.882 78.7771 71.8942 78.7771C72.9065 78.7771 73.7252 77.8947 73.7252 76.8037Z" fill="#0C4DA2"/>
</svg>
