<svg width="96" height="96" viewBox="0 0 96 96" fill="none" xmlns="http://www.w3.org/2000/svg">
<path d="M89.5607 24.0037C76.3083 1.04942 46.9558 -6.81576 24.0036 6.4393C1.04964 19.6901 -6.81576 49.0417 6.43914 71.995C19.6898 94.9493 49.0413 102.816 71.9938 89.5619C94.9481 76.3065 102.817 46.9564 89.5607 24.0037ZM67.1958 81.2467C48.8353 91.851 25.3519 85.5585 14.7508 67.1942C4.14726 48.8335 10.4418 25.3502 28.8029 14.7511C47.1646 4.14738 70.6467 10.4393 81.2485 28.803C91.8505 47.1664 85.5577 70.6449 67.1958 81.2467ZM65.2765 46.0492L40.1465 31.3926C37.8564 30.0556 36.0093 31.1246 36.0221 33.7735L36.1508 62.8653C36.1624 65.5136 38.0322 66.5917 40.3289 65.2651L65.2667 50.8672C67.561 49.543 67.5659 47.3862 65.2765 46.0492Z" fill="#0A0A0A"/>
</svg>
